<?xml version="1.0" standalone="no"?>
<!DOCTYPE svg PUBLIC "-//W3C//DTD SVG 20010904//EN"
 "http://www.w3.org/TR/2001/REC-SVG-20010904/DTD/svg10.dtd">
<svg version="1.0" xmlns="http://www.w3.org/2000/svg"
 width="1772.000000pt" height="591.000000pt" viewBox="0 0 1772.000000 591.000000"
 preserveAspectRatio="xMidYMid meet">
<metadata>
Created by potrace 1.16, written by Peter Selinger 2001-2019
</metadata>
<g transform="translate(0.000000,591.000000) scale(0.100000,-0.100000)"
fill="#000000" stroke="none">
<path d="M2359 5645 c-735 -105 -1294 -606 -1474 -1322 -46 -186 -70 -425 -59
-590 l6 -103 399 0 399 0 -6 118 c-31 571 273 1000 777 1097 99 19 297 22 389
5 240 -41 445 -164 568 -340 25 -36 48 -69 52 -73 5 -6 663 376 689 399 3 2
-21 42 -53 88 -254 375 -644 623 -1117 712 -116 22 -445 27 -570 9z"/>
<path d="M7964 5159 c-462 -35 -760 -269 -879 -690 -32 -115 -45 -267 -45
-556 l0 -283 600 0 600 0 0 45 0 45 -226 0 -225 0 3 238 3 238 33 66 c55 112
138 157 310 166 l102 5 0 362 0 362 -61 7 c-68 7 -69 7 -215 -5z"/>
<path d="M12883 4865 c-89 -24 -146 -57 -210 -121 -35 -34 -63 -67 -63 -73 0
-7 45 -11 140 -11 l139 0 20 -67 c141 -477 211 -719 211 -725 0 -4 -130 -8
-290 -8 l-290 0 0 -65 0 -65 312 -2 312 -3 155 -528 c85 -290 158 -524 162
-520 4 5 76 243 160 531 l153 522 313 0 c253 0 313 3 313 13 0 25 88 192 138
262 165 233 450 415 734 470 224 43 461 8 668 -101 231 -122 465 -394 531
-619 11 -38 24 -81 29 -95 5 -14 9 251 9 598 l1 622 -1797 -1 c-1505 0 -1806
-3 -1850 -14z"/>
<path d="M12228 4679 c-251 -37 -464 -182 -563 -384 l-35 -70 0 208 0 207
-375 0 -375 0 0 -505 0 -505 436 0 436 0 49 44 c65 58 119 89 215 123 71 24
93 27 216 27 l138 1 0 433 0 432 -42 -1 c-24 -1 -69 -5 -100 -10z"/>
<path d="M5414 4635 c-167 -29 -336 -96 -477 -188 -92 -60 -413 -325 -748
-617 l-223 -195 595 -3 594 -3 20 28 c11 15 49 58 85 94 104 105 229 154 390
153 177 -1 344 -85 437 -218 l38 -55 393 -1 c355 0 392 2 392 16 0 35 -73 233
-116 314 -148 277 -395 497 -686 610 -137 53 -244 72 -433 76 -125 2 -205 -1
-261 -11z"/>
<path d="M9253 4599 c-419 -38 -783 -374 -899 -828 -13 -51 -24 -104 -24 -117
l0 -24 334 0 333 0 31 63 c60 121 161 207 290 247 72 22 215 27 292 9 131 -30
255 -129 312 -249 l33 -69 348 0 347 -1 0 455 0 455 -330 0 -330 0 0 -96 0
-96 -59 54 c-170 153 -405 222 -678 197z"/>
<path d="M15385 3910 c-163 -33 -323 -148 -381 -274 -29 -63 -50 -188 -40
-239 4 -20 9 -37 13 -37 6 0 846 361 852 367 3 2 -19 28 -49 58 -108 109 -249
154 -395 125z"/>
<path d="M12540 2827 l0 -877 280 0 c154 0 280 3 280 8 0 12 -549 1734 -555
1740 -3 3 -5 -389 -5 -871z"/>
<path d="M14331 3458 c-57 -176 -471 -1492 -471 -1499 0 -5 601 -9 1335 -9
l1335 0 0 401 0 400 -61 -80 c-170 -226 -459 -397 -789 -468 -129 -27 -356
-25 -474 6 -316 82 -569 292 -716 595 -99 204 -133 347 -134 564 0 83 -1 152
-2 152 -2 0 -12 -28 -23 -62z"/>
<path d="M15852 3216 c-359 -155 -660 -287 -670 -293 -15 -11 -13 -16 27 -52
74 -69 140 -94 257 -99 119 -5 213 17 334 76 98 48 206 150 251 236 l32 62
211 -28 c116 -15 217 -27 224 -28 9 0 12 47 12 205 0 158 -3 205 -12 204 -7 0
-307 -128 -666 -283z"/>
<path d="M856 3453 c17 -95 67 -271 104 -365 219 -553 693 -952 1265 -1067
431 -86 824 -35 1212 156 203 100 294 168 603 453 157 144 295 272 307 283
l23 20 12 -34 c21 -61 126 -262 179 -344 74 -113 251 -288 368 -364 446 -287
1024 -279 1457 20 355 246 564 657 564 1109 0 52 -3 112 -6 133 l-7 37 -379 0
c-358 0 -380 -1 -373 -17 4 -10 10 -67 12 -128 9 -198 -39 -330 -166 -455
-113 -112 -228 -160 -383 -160 -101 0 -168 15 -253 55 -233 112 -356 389 -298
675 l6 30 -650 0 -649 0 -234 -211 c-278 -251 -403 -347 -525 -405 -134 -63
-225 -85 -390 -91 -151 -6 -258 8 -385 49 -277 89 -488 302 -585 588 l-22 65
-407 3 -407 2 7 -37z"/>
<path d="M7040 2520 l0 -970 375 0 375 0 0 715 0 715 225 0 225 0 0 255 0 255
-600 0 -600 0 0 -970z"/>
<path d="M8313 3363 c15 -338 137 -616 366 -835 133 -127 268 -204 438 -250
108 -29 342 -31 456 -5 154 36 265 94 365 191 l52 50 0 -102 0 -102 330 0 330
0 0 590 0 590 -330 0 -330 0 0 -55 c0 -150 -59 -305 -150 -396 -197 -198 -540
-195 -726 4 -96 102 -144 227 -144 375 l0 72 -331 0 -332 0 6 -127z"/>
<path d="M10880 2800 l0 -690 375 0 375 0 0 593 c1 584 4 658 36 765 l6 22
-396 0 -396 0 0 -690z"/>
<path d="M4190 1311 c-5 -11 -10 -31 -10 -45 0 -20 5 -26 21 -26 12 0 27 7 33
15 10 14 17 14 59 -5 55 -24 79 -20 95 16 21 45 16 64 -18 64 -20 0 -30 -5
-30 -15 0 -19 -21 -19 -46 0 -29 22 -91 19 -104 -4z"/>
<path d="M15267 1201 c-118 -24 -165 -157 -82 -230 18 -16 69 -41 113 -55 88
-30 112 -49 112 -89 0 -32 -48 -67 -91 -67 -36 0 -105 25 -136 50 -34 26 -38
25 -53 -10 -16 -38 -4 -54 65 -86 35 -17 68 -24 112 -24 123 0 187 50 187 147
0 44 -4 57 -29 83 -16 16 -54 39 -84 50 -134 49 -159 68 -147 114 11 44 79 57
151 30 73 -28 72 -28 90 6 15 30 15 33 -2 45 -40 29 -146 47 -206 36z"/>
<path d="M1135 1179 c-51 -25 -92 -64 -118 -114 -17 -31 -22 -57 -22 -120 0
-93 20 -141 81 -195 53 -46 93 -60 171 -60 69 0 122 19 172 61 l25 20 -26 26
-25 25 -42 -27 c-119 -79 -267 -5 -279 139 -8 96 61 183 152 193 57 7 83 0
131 -33 l39 -26 18 23 c28 33 19 50 -41 81 -68 36 -173 39 -236 7z"/>
<path d="M1682 1175 c-123 -63 -172 -219 -108 -349 47 -96 127 -140 246 -134
99 4 160 39 206 116 75 125 40 283 -80 357 -42 26 -61 30 -130 33 -71 3 -87 0
-134 -23z m185 -56 c57 -21 122 -108 123 -164 0 -73 -62 -164 -127 -186 -139
-46 -284 104 -228 237 41 99 141 148 232 113z"/>
<path d="M2230 946 l0 -256 35 0 35 0 1 193 0 192 85 -167 c112 -223 106 -223
213 -10 l80 157 0 -182 1 -183 40 0 40 0 0 255 0 255 -48 0 -47 0 -85 -169
-84 -170 -87 167 -86 167 -47 3 -46 3 0 -255z"/>
<path d="M2970 945 l0 -255 35 0 35 0 0 80 0 80 93 0 c164 0 221 50 215 187
-3 66 -6 75 -36 106 -45 46 -88 57 -226 57 l-116 0 0 -255z m244 171 c59 -25
81 -81 55 -139 -19 -42 -59 -57 -148 -57 l-81 0 0 105 0 105 70 0 c39 0 86 -6
104 -14z"/>
<path d="M3530 963 c-57 -131 -105 -246 -108 -255 -4 -15 2 -18 36 -18 40 0
41 0 64 60 l23 60 126 0 126 0 24 -60 24 -60 42 0 c24 0 43 1 43 3 0 2 -49
116 -108 253 l-108 249 -41 3 -40 3 -103 -238z m188 30 c23 -54 42 -101 42
-105 0 -5 -41 -8 -91 -8 -69 0 -90 3 -86 13 39 100 82 197 87 197 4 0 26 -44
48 -97z"/>
<path d="M4070 945 l0 -255 40 0 40 0 2 181 3 180 129 -180 c129 -180 130
-181 168 -181 l38 0 0 255 0 255 -35 0 -35 0 -2 -187 -3 -187 -134 187 c-134
186 -135 187 -173 187 l-38 0 0 -255z"/>
<path d="M4700 945 l0 -255 40 0 40 0 0 255 0 255 -40 0 -40 0 0 -255z"/>
<path d="M5033 962 c-56 -130 -105 -245 -109 -255 -6 -16 -2 -18 36 -15 40 3
43 5 65 58 l23 55 125 3 124 3 26 -61 c26 -59 27 -60 67 -60 22 0 40 3 40 6 0
4 -48 119 -107 255 l-107 249 -40 0 -41 0 -102 -238z m201 1 l35 -83 -95 0
-94 0 16 38 c8 20 29 71 47 112 l31 74 12 -29 c7 -17 28 -67 48 -112z"/>
<path d="M5840 945 l0 -255 35 0 35 0 0 105 0 105 115 0 115 0 0 35 0 35 -115
0 -115 0 0 80 0 80 125 0 125 0 0 35 0 35 -160 0 -160 0 0 -255z"/>
<path d="M6427 1168 c-8 -18 -55 -128 -105 -244 -51 -117 -92 -217 -92 -223 0
-6 17 -11 39 -11 38 0 39 1 61 60 l22 60 127 0 126 0 24 -60 24 -60 43 0 c37
0 42 3 37 18 -4 9 -53 123 -109 252 l-102 235 -40 3 c-38 3 -42 1 -55 -30z
m102 -182 c23 -54 41 -100 41 -102 0 -2 -41 -4 -91 -4 -83 0 -91 2 -85 18 33
89 82 199 88 194 3 -4 25 -51 47 -106z"/>
<path d="M6880 946 l0 -256 35 0 35 0 0 80 0 80 73 0 72 0 48 -80 48 -80 45 0
c24 0 44 3 44 6 0 3 -24 40 -54 83 l-54 76 38 33 c46 39 64 86 58 159 -5 61
-28 98 -79 128 -29 17 -56 21 -171 23 l-138 4 0 -256z m250 171 c25 -8 40 -23
53 -49 23 -46 16 -86 -19 -119 -23 -21 -37 -24 -120 -27 l-94 -4 0 106 0 106
73 -1 c39 0 88 -5 107 -12z"/>
<path d="M7460 945 l0 -255 35 0 35 0 2 186 3 186 83 -161 c69 -134 87 -161
105 -161 19 0 36 27 104 163 l82 162 0 -187 1 -188 35 0 35 0 0 255 0 255 -43
0 -42 0 -86 -172 -86 -173 -87 173 -86 172 -45 0 -45 0 0 -255z"/>
<path d="M8236 955 c-58 -135 -106 -250 -106 -255 0 -6 17 -10 38 -10 38 0 39
1 63 60 l24 60 125 0 125 0 24 -60 24 -60 44 0 c23 0 43 1 43 3 0 1 -49 115
-108 252 l-108 250 -41 3 -40 3 -107 -246z m193 35 c22 -55 41 -103 41 -105 0
-3 -40 -5 -90 -5 -49 0 -90 2 -90 5 0 14 84 205 90 205 4 0 26 -45 49 -100z"/>
<path d="M8880 1184 c-58 -25 -99 -63 -127 -117 -51 -99 -29 -242 49 -314 71
-66 203 -83 295 -38 74 37 82 50 51 81 l-25 25 -37 -25 c-74 -50 -148 -47
-214 9 -101 87 -90 234 22 300 67 39 151 32 204 -18 l23 -21 27 28 27 27 -33
28 c-18 16 -50 33 -71 40 -53 15 -149 13 -191 -5z"/>
<path d="M9330 945 l0 -255 180 0 180 0 0 35 0 35 -140 0 -140 0 0 75 0 75
120 0 120 0 0 35 0 35 -120 0 -120 0 0 75 0 75 135 0 135 0 0 35 0 35 -175 0
-175 0 0 -255z"/>
<path d="M9860 1018 c0 -209 9 -244 76 -294 33 -26 47 -29 118 -32 104 -4 158
20 196 88 24 43 25 54 28 233 l4 187 -41 0 -41 0 0 -174 c0 -164 -1 -175 -23
-207 -28 -41 -60 -59 -110 -59 -50 0 -93 23 -114 63 -15 26 -19 63 -21 205
l-4 172 -34 0 -34 0 0 -182z"/>
<path d="M10410 1165 l0 -35 80 0 80 0 0 -220 0 -220 40 0 40 0 0 220 0 220
75 0 75 0 0 35 0 35 -195 0 -195 0 0 -35z"/>
<path d="M10950 945 l0 -255 40 0 40 0 0 255 0 255 -40 0 -40 0 0 -255z"/>
<path d="M11331 1174 c-93 -47 -136 -128 -129 -248 4 -92 40 -156 112 -201 67
-41 168 -47 244 -15 28 12 58 30 68 41 16 18 16 20 -5 43 l-23 24 -55 -29
c-64 -33 -102 -36 -158 -10 -75 34 -125 122 -110 194 29 137 174 201 282 124
l38 -27 24 25 c25 24 25 24 5 46 -56 64 -199 80 -293 33z"/>
<path d="M11937 1168 c-8 -18 -51 -118 -97 -223 -45 -104 -89 -205 -96 -222
l-14 -33 43 0 42 0 24 60 24 60 124 0 124 0 26 -60 26 -60 43 0 43 0 -24 58
c-14 31 -63 145 -109 252 l-84 195 -41 3 c-37 3 -41 1 -54 -30z m97 -170 c20
-48 39 -94 42 -103 5 -13 -7 -15 -85 -15 -50 0 -91 3 -91 7 0 18 86 211 91
205 3 -4 22 -46 43 -94z"/>
<path d="M12600 1148 c11 -29 55 -143 99 -253 l79 -200 40 -3 40 -3 90 228
c50 125 95 240 101 256 10 27 10 27 -32 27 l-42 0 -75 -200 c-41 -110 -77
-200 -80 -200 -3 0 -39 90 -80 200 l-75 200 -42 0 -43 0 20 -52z"/>
<path d="M13200 945 l0 -255 180 0 180 0 0 35 0 35 -140 0 -140 0 0 75 0 75
120 0 120 0 0 35 0 35 -120 0 -120 0 0 75 0 75 135 0 135 0 0 35 0 35 -175 0
-175 0 0 -255z"/>
<path d="M13730 946 l0 -256 40 0 40 0 0 80 0 81 72 -3 71 -3 46 -75 c45 -72
48 -75 89 -78 23 -2 42 1 42 6 0 6 -24 45 -52 87 -41 60 -50 79 -38 83 48 17
90 95 90 167 0 47 -40 117 -80 140 -30 17 -57 21 -177 23 l-143 4 0 -256z
m239 178 c48 -10 81 -49 81 -96 0 -81 -39 -108 -160 -108 l-80 0 0 105 0 105
64 0 c35 0 77 -3 95 -6z"/>
<path d="M14363 962 c-56 -130 -105 -245 -109 -255 -6 -16 -2 -18 36 -15 40 3
43 5 65 58 l23 55 125 3 124 3 26 -61 c26 -59 27 -60 68 -60 35 0 40 3 35 18
-4 9 -53 124 -109 254 l-102 238 -40 0 -40 0 -102 -238z m201 1 l35 -83 -94 0
-95 0 11 27 c5 14 26 65 46 112 l37 85 12 -30 c7 -16 28 -66 48 -111z"/>
<path d="M15943 962 c-56 -130 -105 -245 -109 -255 -6 -16 -2 -18 36 -15 40 3
43 5 65 58 l23 55 125 3 124 3 26 -61 c26 -59 27 -60 67 -60 22 0 40 3 40 6 0
4 -48 119 -107 255 l-107 249 -40 0 -41 0 -102 -238z m191 25 l45 -107 -95 0
-94 0 14 33 c7 17 28 67 46 110 18 42 34 76 36 74 2 -1 23 -51 48 -110z"/>
</g>
</svg>
